<svg width="180" height="116" viewBox="0 0 180 116" fill="none" xmlns="http://www.w3.org/2000/svg">
<path d="M90 115.809C139.706 115.809 180 105.887 180 93.6472C180 81.4073 139.706 71.4849 90 71.4849C40.2944 71.4849 0 81.4073 0 93.6472C0 105.887 40.2944 115.809 90 115.809Z" fill="#F4F6F8"/>
<path d="M177.509 62.1557L175.61 57.7654C173.71 53.4174 171.262 49.5337 168.391 46.241C167.378 45.1013 166.323 44.0037 165.225 42.9906C164.043 41.9352 162.819 40.9643 161.595 40.0778C158.091 48.1407 150.957 53.7129 142.725 53.7129C134.451 53.7129 127.275 48.0985 123.813 39.9512C123.644 40.0778 123.433 40.2045 123.265 40.3311C117.523 44.4681 112.753 50.4202 109.587 57.7232L107.688 62.1135C103.255 72.4136 109.629 84.529 119.465 84.529H142.641H165.816C175.61 84.5713 181.984 72.4137 177.509 62.1557Z" fill="#D4DBE4"/>
<path d="M142.683 53.6704C150.915 53.6704 158.091 48.1404 161.553 40.0353C155.896 36.0672 149.395 33.8721 142.556 33.8721C135.929 33.8721 129.554 35.9406 124.024 39.6976C123.94 39.7398 123.856 39.8242 123.771 39.8664C127.233 48.0981 134.409 53.6704 142.683 53.6704Z" fill="#CCD3DF"/>
<path d="M142.556 45.6921C155.146 45.6921 165.352 35.4862 165.352 22.8966C165.352 10.307 155.146 0.101074 142.556 0.101074C129.967 0.101074 119.761 10.307 119.761 22.8966C119.761 35.4862 129.967 45.6921 142.556 45.6921Z" fill="#D4DBE4"/>
<path d="M71.3415 63.3798L69.4419 58.9896C67.5422 54.6415 65.0938 50.7578 62.2233 47.4652C61.2102 46.3254 60.1548 45.2278 59.0573 44.2147C57.8753 43.1593 56.6511 42.1884 55.4269 41.3019C51.9231 49.3648 44.789 54.937 36.5572 54.937C28.2833 54.937 21.107 49.3226 17.6454 41.1753C17.4766 41.3019 17.2655 41.4286 17.0966 41.5552C11.3556 45.6922 6.58539 51.6443 3.41935 58.9473L1.51973 63.3376C-2.91273 73.6378 3.46157 85.7532 13.2974 85.7532H36.4728H59.6482C69.3997 85.8376 75.7739 73.68 71.3415 63.3798Z" fill="#D4DBE4"/>
<path d="M36.515 54.937C44.7467 54.937 51.9231 49.407 55.3846 41.3019C49.728 37.3338 43.227 35.1387 36.3884 35.1387C29.7608 35.1387 23.3865 37.2494 17.8565 41.0064C17.7721 41.0486 17.6876 41.133 17.6032 41.1753C21.0225 49.3225 28.1989 54.937 36.515 54.937Z" fill="#CCD3DF"/>
<path d="M36.3884 46.7472C48.978 46.7472 59.1839 36.5414 59.1839 23.9517C59.1839 11.3621 48.978 1.15625 36.3884 1.15625C23.7988 1.15625 13.5929 11.3621 13.5929 23.9517C13.5929 36.5414 23.7988 46.7472 36.3884 46.7472Z" fill="#D4DBE4"/>
<path d="M130.821 73.7641L128.584 68.614C126.388 63.5061 123.518 58.9892 120.141 55.1477C118.959 53.7969 117.735 52.5305 116.426 51.3907C115.075 50.1665 113.64 49.0267 112.162 47.9714C108.11 57.4273 99.7514 63.886 90.1267 63.886C80.4597 63.886 72.0591 57.3429 68.0066 47.8447C67.7955 48.0136 67.5845 48.1402 67.3734 48.3091C60.6614 53.1215 55.0892 60.0868 51.4165 68.614L49.1792 73.7641C43.9869 85.7528 51.4588 99.9367 62.8987 99.9367H89.9578H117.017C128.541 99.9367 136.013 85.7528 130.821 73.7641Z" fill="#EAEDF2"/>
<path d="M90.1267 63.8864C99.7515 63.8864 108.11 57.4277 112.162 47.9718C105.577 43.3705 97.9363 40.7954 90 40.7954C82.2327 40.7954 74.803 43.2438 68.3443 47.6341C68.2177 47.7185 68.1333 47.8029 68.0488 47.8451C72.1014 57.3433 80.4597 63.8864 90.1267 63.8864Z" fill="#DDE2E9"/>
<path d="M90 53.2906C104.688 53.2906 116.595 41.3837 116.595 26.6958C116.595 12.0079 104.688 0.101074 90 0.101074C75.3121 0.101074 63.4053 12.0079 63.4053 26.6958C63.4053 41.3837 75.3121 53.2906 90 53.2906Z" fill="#EAEDF2"/>
</svg>
